<svg width="28" height="28" viewBox="0 0 28 28" fill="none" xmlns="http://www.w3.org/2000/svg">
<path d="M0.318806 16.4985H3.04994C4.23942 21.3146 8.63174 24.8889 13.8682 24.8889C17.7294 24.8889 21.1315 22.9456 23.1292 19.9941C23.4485 19.5223 23.2655 18.8949 22.7676 18.6121C22.2503 18.3184 21.5943 18.51 21.2515 18.9929C19.6208 21.2899 16.9218 22.7913 13.8682 22.7913C9.81228 22.7913 6.38193 20.1424 5.24971 16.4985H8.3276C8.61106 16.4985 8.75301 16.1596 8.55258 15.9614L4.97296 12.4215L4.54818 12.0015C4.42393 11.8786 4.22248 11.8786 4.09822 12.0015L2.74538 13.3393L0.0938271 15.9614C-0.106608 16.1596 0.0353486 16.4985 0.318806 16.4985Z" fill="currentColor"/>
<path d="M27.6812 11.5014H24.9501C23.7606 6.68535 19.3683 3.11108 14.1317 3.11108C10.2706 3.11108 6.86846 5.05435 4.87082 8.00583C4.55145 8.47769 4.73446 9.10508 5.23239 9.38782C5.74973 9.68158 6.40572 9.48993 6.74849 9.00709C8.37917 6.71007 11.0782 5.20867 14.1317 5.20867C18.1877 5.20867 21.6181 7.85756 22.7503 11.5014H19.6724C19.3889 11.5014 19.247 11.8403 19.4474 12.0385L23.027 15.5784L23.4518 15.9985C23.5761 16.1214 23.7775 16.1214 23.9018 15.9985L25.2546 14.6607L27.9062 12.0385C28.1066 11.8403 27.9647 11.5014 27.6812 11.5014Z" fill="currentColor"/>
</svg>
