<svg width="28" height="28" viewBox="0 0 28 28" fill="none" xmlns="http://www.w3.org/2000/svg">
<path d="M14 28C21.732 28 28 21.732 28 14C28 6.268 21.732 0 14 0C6.268 0 0 6.268 0 14C0 21.732 6.268 28 14 28Z" fill="url(#paint0_linear_329_856)"/>
<path d="M18.7808 7.81421H9.21996C7.46206 7.81421 6.34786 9.71046 7.23226 11.2434L13.1329 21.4708C13.5179 22.1386 14.4829 22.1386 14.8679 21.4708L20.7697 11.2434C21.6529 9.71291 20.5387 7.81421 18.782 7.81421H18.7808ZM13.1281 18.4038L11.843 15.9167L8.74231 10.3711C8.53776 10.0161 8.79041 9.56126 9.21876 9.56126H13.1269V18.405L13.1281 18.4038ZM19.2561 10.3699L16.1566 15.9179L14.8715 18.4038V9.56006H18.7796C19.208 9.56006 19.4606 10.0149 19.2561 10.3699Z" fill="white"/>
<defs>
<linearGradient id="paint0_linear_329_856" x1="14" y1="0" x2="14" y2="28" gradientUnits="userSpaceOnUse">
<stop stop-color="#5D5D65"/>
<stop offset="1" stop-color="#323338"/>
</linearGradient>
</defs>
</svg>
