<svg width="28" height="28" viewBox="0 0 28 28" fill="none" xmlns="http://www.w3.org/2000/svg">
<path d="M4.14819 20.568C4.14819 13.3779 11.1264 9.50629 14.0921 9.50629V5.1853L22.8149 13.8273L14.0921 21.7779V16.8852C10.1843 16.8852 5.83459 19.3404 4.14819 20.568Z" fill="black"/>
<path d="M14.0921 9.50629V10.2563H14.8421V9.50629H14.0921ZM4.14819 20.568H3.39819C3.39819 20.8502 3.55655 21.1085 3.80801 21.2364C4.05947 21.3644 4.36147 21.3404 4.58959 21.1744L4.14819 20.568ZM14.0921 16.8852H14.8421V16.1352H14.0921V16.8852ZM14.0921 21.7779H13.3421C13.3421 22.0749 13.5174 22.344 13.7892 22.464C14.0609 22.584 14.3778 22.5323 14.5973 22.3322L14.0921 21.7779ZM22.8149 13.8273L23.3201 14.3816C23.472 14.2431 23.5604 14.0484 23.5647 13.8429C23.569 13.6374 23.4887 13.4391 23.3427 13.2945L22.8149 13.8273ZM14.0921 5.1853L14.62 4.65251C14.4049 4.43946 14.0829 4.37657 13.8035 4.49306C13.5241 4.60956 13.3421 4.88259 13.3421 5.1853H14.0921ZM14.0921 8.75629C12.371 8.75629 9.71579 9.83351 7.51175 11.7785C5.27637 13.7512 3.39819 16.7083 3.39819 20.568H4.89819C4.89819 17.2376 6.50912 14.6639 8.50426 12.9032C10.5308 11.1149 12.8475 10.2563 14.0921 10.2563V8.75629ZM4.58959 21.1744C5.38841 20.5929 6.84876 19.7002 8.58307 18.9554C10.3236 18.208 12.2812 17.6352 14.0921 17.6352V16.1352C11.9952 16.1352 9.82406 16.7901 7.9912 17.5771C6.15209 18.3669 4.59438 19.3156 3.7068 19.9617L4.58959 21.1744ZM13.3421 16.8852V21.7779H14.8421V16.8852H13.3421ZM23.3427 13.2945L14.62 4.65251L13.5643 5.71809L22.287 14.3601L23.3427 13.2945ZM13.3421 5.1853V9.50629H14.8421V5.1853H13.3421ZM22.3096 13.273L13.5869 21.2236L14.5973 22.3322L23.3201 14.3816L22.3096 13.273Z" fill="black"/>
</svg>
