<svg width="28" height="28" viewBox="0 0 28 28" fill="none" xmlns="http://www.w3.org/2000/svg">
<path d="M20.4743 13.8297C20.4743 17.3111 17.652 20.1334 14.1706 20.1334C10.6891 20.1334 7.86688 17.3111 7.86688 13.8297C7.86688 10.3482 10.6891 7.52595 14.1706 7.52595C17.652 7.52595 20.4743 10.3482 20.4743 13.8297Z" fill="currentColor"/>
<path d="M13.3187 2.92595C13.3187 2.45548 13.7001 2.0741 14.1706 2.0741C14.6411 2.0741 15.0224 2.45548 15.0224 2.92595V3.94817C15.0224 4.41864 14.6411 4.80002 14.1706 4.80002C13.7001 4.80002 13.3187 4.41864 13.3187 3.94817V2.92595Z" fill="currentColor"/>
<path d="M13.3187 24.0519C13.3187 23.5814 13.7001 23.2 14.1706 23.2C14.6411 23.2 15.0224 23.5814 15.0224 24.0519V25.0741C15.0224 25.5446 14.6411 25.9259 14.1706 25.9259C13.7001 25.9259 13.3187 25.5446 13.3187 25.0741V24.0519Z" fill="currentColor"/>
<path d="M5.59857 6.64487C5.2659 6.3122 5.2659 5.77283 5.59857 5.44017C5.93124 5.1075 6.4706 5.1075 6.80327 5.44017L7.52609 6.16299C7.85876 6.49565 7.85876 7.03502 7.52609 7.36769C7.19342 7.70036 6.65406 7.70036 6.32139 7.36769L5.59857 6.64487Z" fill="currentColor"/>
<path d="M20.8029 21.8492C20.4702 21.5165 20.4702 20.9771 20.8029 20.6445C21.1355 20.3118 21.6749 20.3118 22.0076 20.6445L22.7304 21.3673C23.063 21.7 23.063 22.2393 22.7304 22.572C22.3977 22.9047 21.8583 22.9047 21.5257 22.572L20.8029 21.8492Z" fill="currentColor"/>
<path d="M7.69644 21.8492C8.02911 21.5165 8.02911 20.9771 7.69644 20.6445C7.36377 20.3118 6.82441 20.3118 6.49174 20.6445L5.76892 21.3673C5.43625 21.7 5.43625 22.2393 5.76892 22.572C6.10159 22.9047 6.64095 22.9047 6.97362 22.572L7.69644 21.8492Z" fill="currentColor"/>
<path d="M22.7304 6.64487C23.063 6.3122 23.063 5.77283 22.7304 5.44016C22.3977 5.1075 21.8583 5.1075 21.5257 5.44016L20.8029 6.16299C20.4702 6.49565 20.4702 7.03502 20.8029 7.36768C21.1355 7.70035 21.6749 7.70035 22.0076 7.36768L22.7304 6.64487Z" fill="currentColor"/>
<path d="M2.92607 14.6815C2.45561 14.6815 2.07422 14.3001 2.07422 13.8297C2.07422 13.3592 2.45561 12.9778 2.92607 12.9778H3.94829C4.41876 12.9778 4.80014 13.3592 4.80014 13.8297C4.80014 14.3001 4.41876 14.6815 3.94829 14.6815H2.92607Z" fill="currentColor"/>
<path d="M24.052 14.6815C23.5815 14.6815 23.2001 14.3001 23.2001 13.8297C23.2001 13.3592 23.5815 12.9778 24.052 12.9778H25.0742C25.5447 12.9778 25.9261 13.3592 25.9261 13.8297C25.9261 14.3001 25.5447 14.6815 25.0742 14.6815H24.052Z" fill="currentColor"/>
</svg>
