<svg width="22" height="22" viewBox="0 0 22 22" fill="none" xmlns="http://www.w3.org/2000/svg">
<path d="M18.9838 3.34987C18.9838 3.34987 20.7646 2.6555 20.6162 4.34184C20.5667 5.03622 20.1216 7.46653 19.7753 10.0953L18.5881 17.8822C18.5881 17.8822 18.4892 19.0229 17.5988 19.2214C16.7084 19.4197 15.3729 18.527 15.1255 18.3286C14.9276 18.1798 11.4156 15.9479 10.1789 14.8567C9.83267 14.5591 9.43694 13.9639 10.2284 13.2695L15.4223 8.30973C16.0159 7.71454 16.6095 6.32579 14.1362 8.01213L7.211 12.724C7.211 12.724 6.41955 13.2199 4.93561 12.7736L1.72032 11.7816C1.72032 11.7816 0.533138 11.0376 2.56124 10.2936C7.50782 7.9625 13.5921 5.58178 18.9838 3.34987Z" fill="black"/>
</svg>
