<svg width="20" height="20" viewBox="0 0 20 20" fill="none" xmlns="http://www.w3.org/2000/svg">
<path fill-rule="evenodd" clip-rule="evenodd" d="M12.2149 2.48949C12.7165 2.24984 13.354 2.52682 13.5493 3.0477C13.7985 3.71233 14.2068 4.55043 14.8295 5.17384C15.4522 5.79725 16.2894 6.20597 16.9532 6.45545C17.4735 6.65098 17.7502 7.28919 17.5108 7.7913C17.1882 8.46807 16.8386 9.35126 16.8386 10.0011C16.8386 10.6823 17.2226 11.6197 17.5571 12.3071C17.7867 12.7789 17.5591 13.3758 17.0789 13.5863C16.3978 13.885 15.4922 14.3661 14.8295 15.0296C14.2274 15.6324 13.8257 16.3857 13.5746 16.9888C13.3635 17.4957 12.7326 17.7613 12.238 17.5238C11.5591 17.1978 10.6641 16.8398 10.0076 16.8398C9.3292 16.8398 8.3966 17.2218 7.71058 17.556C7.23729 17.7865 6.61909 17.5614 6.38873 17.0877C6.08825 16.4697 5.62026 15.6658 4.98477 15.0296C4.33721 14.3813 3.51572 13.9071 2.89403 13.6071C2.4309 13.3836 2.21766 12.7982 2.44394 12.336C2.78168 11.6461 3.17655 10.6918 3.17655 10.0011C3.17655 9.34386 2.81897 8.44792 2.49331 7.76826C2.25607 7.27312 2.52144 6.64152 3.02773 6.43017C3.63016 6.1787 4.38265 5.77663 4.98477 5.17384C5.64749 4.51038 6.12804 3.60376 6.42642 2.92186C6.63674 2.44121 7.23297 2.2133 7.70418 2.44312C8.39085 2.77804 9.32721 3.16247 10.0076 3.16247C10.6567 3.16247 11.5389 2.8125 12.2149 2.48949ZM13.4388 7.35265C13.2184 7.12288 12.861 7.12288 12.6406 7.35265L8.80238 11.3619L7.33484 9.83212C7.11441 9.60235 6.75703 9.60235 6.5366 9.83212C6.31617 10.0619 6.31617 10.4344 6.5366 10.6642L8.44767 12.6562C8.56591 12.7739 8.87012 12.9387 9.14105 12.6562L13.4388 8.17636C13.6592 7.94659 13.6592 7.58242 13.4388 7.35265Z" fill="#007AFF"/>
</svg>
