<svg width="28" height="28" viewBox="0 0 28 28" fill="none" xmlns="http://www.w3.org/2000/svg">
<path d="M16.8738 6.22217C17.5606 7.71292 17.7739 9.37833 17.4851 10.9941C17.1964 12.6098 16.4194 14.0982 15.2588 15.2588C14.0982 16.4194 12.6098 17.1964 10.9941 17.4852C9.37833 17.7739 7.71292 17.5606 6.22217 16.8738C7.10891 20.8668 10.6711 23.8518 14.9308 23.8518C19.8579 23.8518 23.8518 19.8579 23.8518 14.9308C23.8518 10.6711 20.8668 7.10891 16.8738 6.22217Z" fill="black"/>
<path d="M6.91338 4.47816C6.91338 4.36817 6.84425 4.14819 6.5677 4.14819C6.29116 4.14819 6.22202 4.36817 6.22202 4.47816C6.22202 5.0281 5.87634 6.12799 4.49363 6.12799C4.3784 6.12799 4.14795 6.19398 4.14795 6.45796C4.14795 6.72193 4.3784 6.78792 4.49363 6.78792C5.06976 6.84292 6.22202 7.24988 6.22202 8.43776C6.22202 8.54774 6.29116 8.76772 6.5677 8.76772C6.84425 8.76772 6.91338 8.54774 6.91338 8.43776C6.91338 7.11789 8.18087 6.78792 8.64178 6.78792C8.757 6.78792 8.98746 6.72193 8.98746 6.45796C8.98746 6.19398 8.757 6.12799 8.64178 6.12799C7.25906 6.12799 6.91338 5.0281 6.91338 4.47816Z" fill="black"/>
<path d="M11.4072 8.43776C11.4072 8.32777 11.4763 8.10779 11.7529 8.10779C12.0294 8.10779 12.0986 8.32777 12.0986 8.43776C12.0986 8.76772 12.306 9.42765 13.1356 9.42765C13.2508 9.42765 13.4813 9.49365 13.4813 9.75762C13.4813 10.0216 13.2508 10.0876 13.1356 10.0876C12.7899 10.0876 12.0986 10.2856 12.0986 11.0775C12.0986 11.1875 12.0294 11.4075 11.7529 11.4075C11.4763 11.4075 11.4072 11.1875 11.4072 11.0775C11.4072 10.7475 11.1998 10.0876 10.3702 10.0876C10.2549 10.0876 10.0245 10.0216 10.0245 9.75762C10.0245 9.49365 10.2549 9.42765 10.3702 9.42765C10.7159 9.42765 11.4072 9.22967 11.4072 8.43776Z" fill="black"/>
</svg>
