<svg width="28" height="28" viewBox="0 0 28 28" fill="none" xmlns="http://www.w3.org/2000/svg">
<path fill-rule="evenodd" clip-rule="evenodd" d="M23.8521 13.4815C23.8521 19.2089 19.2091 23.8518 13.4817 23.8518C7.7543 23.8518 3.11133 19.2089 3.11133 13.4815C3.11133 7.75406 7.7543 3.11108 13.4817 3.11108C19.2091 3.11108 23.8521 7.75406 23.8521 13.4815ZM13.4817 19.358C12.6521 19.358 12.4447 18.6666 12.4447 18.321V14.5185H8.64219C8.29651 14.5185 7.60516 14.3111 7.60516 13.4815C7.60516 12.6518 8.29651 12.4444 8.64219 12.4444H12.4447V8.64195C12.4447 8.29627 12.6521 7.60491 13.4817 7.60491C14.3113 7.60491 14.5187 8.29627 14.5187 8.64195V12.4444H18.3212C18.6669 12.4444 19.3582 12.6518 19.3582 13.4815C19.3582 14.3111 18.6669 14.5185 18.3212 14.5185H14.5187V18.321C14.5187 18.6666 14.3113 19.358 13.4817 19.358Z" fill="black"/>
</svg>
