<svg width="28" height="28" viewBox="0 0 28 28" fill="none" xmlns="http://www.w3.org/2000/svg">
<path fill-rule="evenodd" clip-rule="evenodd" d="M24.7407 14.3704C24.7407 20.0978 20.0978 24.7407 14.3704 24.7407C8.64297 24.7407 4 20.0978 4 14.3704C4 8.64297 8.64297 4 14.3704 4C20.0978 4 24.7407 8.64297 24.7407 14.3704ZM14.3704 20.2469C13.5407 20.2469 13.3333 19.5556 13.3333 19.2099V15.4074H9.53086C9.18519 15.4074 8.49383 15.2 8.49383 14.3704C8.49383 13.5407 9.18519 13.3333 9.53086 13.3333H13.3333V9.53086C13.3333 9.18519 13.5407 8.49383 14.3704 8.49383C15.2 8.49383 15.4074 9.18519 15.4074 9.53086V13.3333H19.2099C19.5556 13.3333 20.2469 13.5407 20.2469 14.3704C20.2469 15.2 19.5556 15.4074 19.2099 15.4074H15.4074V19.2099C15.4074 19.5556 15.2 20.2469 14.3704 20.2469Z" fill="currentColor"/>
</svg>
