<svg width="28" height="28" viewBox="0 0 28 28" fill="none" xmlns="http://www.w3.org/2000/svg">
<path d="M27.5 14C27.5 21.3693 21.3824 27.5 14 27.5C6.63103 27.5 0.5 21.3689 0.5 14C0.5 6.61699 6.61763 0.5 13.9863 0.5C21.3696 0.5 27.5 6.61795 27.5 14Z" stroke="#7F7F7F" stroke-opacity="0.15"/>
<path opacity="0.1" d="M20 15.0511C19.7295 16.4424 18.9912 17.6958 17.9109 18.5981C16.8305 19.5003 15.4749 19.9956 14.0745 19.9997C12.6742 20.0038 11.3157 19.5164 10.2303 18.6205C9.14482 17.7246 8.39944 16.4755 8.12098 15.0858C7.84251 13.6961 8.04816 12.2516 8.70294 10.9981C9.35772 9.74459 10.4212 8.75958 11.7123 8.21064C13.0035 7.6617 14.4426 7.58275 15.7848 7.98723C17.1269 8.39171 18.2892 9.25463 19.0739 10.4291" stroke="black" stroke-width="1.3"/>
<path opacity="0.1" d="M19.4469 7L19.2064 10.6197L15.6318 10.3734" stroke="black" stroke-width="1.3"/>
<path d="M20 15.0511C19.7295 16.4424 18.9912 17.6958 17.9109 18.5981C16.8305 19.5003 15.4749 19.9956 14.0745 19.9997C12.6742 20.0038 11.3157 19.5164 10.2303 18.6205C9.14482 17.7246 8.39944 16.4755 8.12098 15.0858C7.84251 13.6961 8.04816 12.2516 8.70294 10.9981C9.35772 9.74459 10.4212 8.75958 11.7123 8.21064C13.0035 7.6617 14.4426 7.58275 15.7848 7.98723C17.1269 8.39171 18.2892 9.25463 19.0739 10.4291" stroke="black" stroke-width="1.3"/>
<path d="M19.4469 7L19.2064 10.6197L15.6318 10.3734" stroke="black" stroke-width="1.3"/>
</svg>
