<svg width="28" height="28" viewBox="0 0 28 28" fill="none" xmlns="http://www.w3.org/2000/svg">
<path d="M10.815 3.11108C12.8582 3.11108 14.8176 3.92272 16.2624 5.36745C17.7071 6.81217 18.5187 8.77164 18.5187 10.8148C18.5187 12.7229 17.8195 14.477 16.6698 15.8281L16.9898 16.1481H17.9261L23.8521 22.074L22.0743 23.8518L16.1484 17.9259V16.9896L15.8284 16.6696C14.4305 17.8628 12.6529 18.5184 10.815 18.5185C8.77188 18.5185 6.81242 17.7069 5.36769 16.2621C3.92297 14.8174 3.11133 12.8579 3.11133 10.8148C3.11133 8.77164 3.92297 6.81217 5.36769 5.36745C6.81242 3.92272 8.77188 3.11108 10.815 3.11108ZM10.815 5.48145C7.85207 5.48145 5.4817 7.85182 5.4817 10.8148C5.4817 13.7778 7.85207 16.1481 10.815 16.1481C13.778 16.1481 16.1484 13.7778 16.1484 10.8148C16.1484 7.85182 13.778 5.48145 10.815 5.48145Z" fill="currentColor"/>
</svg>
