<svg width="24" height="24" viewBox="0 0 24 24" fill="none" xmlns="http://www.w3.org/2000/svg">
<path d="M23.5 12C23.5 18.3513 18.3513 23.5 12 23.5C5.64871 23.5 0.5 18.3513 0.5 12C0.5 5.64871 5.64871 0.5 12 0.5C18.3513 0.5 23.5 5.64871 23.5 12Z" stroke="#63707D"/>
<path d="M11.6893 18.1537L11.6892 18.1535L10.9172 16.8155L11.6043 16.1293L11.6053 16.1283L11.8641 15.8699L11.751 15.651V8.19523V7.69523H11.251H7.90117C7.14922 7.69523 6.69439 8.49983 7.05769 9.13572L9.7101 13.8796L10.751 15.8941V16.5273L6.63155 9.38721C6.63155 9.3872 6.63155 9.3872 6.63154 9.3872C6.06824 8.41081 6.77536 7.19775 7.9022 7.19775H16.0972H16.0982C17.2238 7.19775 17.9312 8.4127 17.3689 9.38716L12.3102 18.1535L12.3101 18.1537C12.1725 18.3924 11.8269 18.3924 11.6893 18.1537ZM12.2464 15.7745L13.1905 16.0041L14.2883 13.8806L16.9397 9.13459C17.3029 8.49872 16.8481 7.6942 16.0962 7.6942H12.7464H12.2464V8.1942V15.7745Z" fill="#63707D" stroke="#63707D"/>
</svg>
