<svg width="40" height="40" viewBox="0 0 40 40" fill="none" xmlns="http://www.w3.org/2000/svg">
<circle cx="20" cy="20" r="20" fill="#D9D9D9"/>
<path d="M19.9998 22.7879C23.2865 22.664 29.7502 23.7544 29.312 29.1071C29.1659 29.9992 28.5207 30.2223 28.2164 30.2223H19.9998L11.7833 30.2223C11.4789 30.2223 10.8338 29.9992 10.6877 29.1071C10.2495 23.7544 16.7132 22.664 19.9998 22.7879Z" fill="#868686"/>
<path d="M25.1124 14.9819C25.1124 17.856 22.8234 20.1859 19.9998 20.1859C17.1762 20.1859 14.8873 17.856 14.8873 14.9819C14.8873 12.1078 17.1762 9.77783 19.9998 9.77783C22.8234 9.77783 25.1124 12.1078 25.1124 14.9819Z" fill="#868686"/>
</svg>
